<svg id="svg" version="1.1" xmlns="http://www.w3.org/2000/svg" xmlns:xlink="http://www.w3.org/1999/xlink" width="400" height="400" viewBox="0, 0, 400,400"><g id="svgg"><path id="path0" d="M203.600 86.433 C 178.998 89.114,153.367 104.343,146.215 120.530 C 143.846 125.892,140.400 140.656,140.400 145.446 C 140.400 150.807,143.879 165.220,146.562 170.973 C 149.272 176.787,160.929 189.119,168.073 193.731 C 174.151 197.654,195.419 208.226,207.200 213.181 C 217.313 217.433,226.570 224.145,230.658 230.188 C 235.396 237.189,234.596 250.317,229.107 255.644 C 222.243 262.305,214.290 264.580,198.000 264.541 C 178.461 264.495,168.037 262.040,153.885 254.152 C 146.532 250.054,143.847 250.356,142.800 255.399 C 142.009 259.211,142.426 283.014,143.320 285.000 C 145.432 289.697,153.422 293.285,166.099 295.230 C 168.903 295.660,172.663 296.362,174.455 296.789 C 183.199 298.878,213.419 299.080,221.600 297.104 C 223.910 296.547,227.330 295.780,229.200 295.401 C 254.799 290.214,274.119 274.246,278.771 254.432 C 280.434 247.348,279.894 225.718,277.926 220.600 C 269.859 199.622,253.888 186.047,223.299 174.170 C 191.794 161.937,179.925 146.597,190.261 131.469 C 196.471 122.381,204.375 119.595,223.916 119.604 C 241.332 119.612,247.655 120.762,260.215 126.206 C 267.731 129.463,270.020 129.404,271.604 125.915 C 272.666 123.576,272.808 101.119,271.783 97.667 C 270.620 93.753,267.599 91.627,260.916 90.021 C 251.742 87.817,246.372 86.738,242.885 86.399 C 238.216 85.944,207.841 85.971,203.600 86.433 " stroke="none" fill="#5c7cfc" fill-rule="evenodd"></path></g></svg>