<svg id="svg" version="1.1" xmlns="http://www.w3.org/2000/svg" xmlns:xlink="http://www.w3.org/1999/xlink" width="400" height="400" viewBox="0, 0, 400,400"><g id="svgg"><path id="path0" d="M106.400 89.601 C 77.524 93.273,54.264 108.745,47.469 128.800 C 43.822 139.562,43.040 148.089,44.823 157.645 C 47.777 173.482,50.944 178.948,64.356 191.357 C 70.827 197.345,92.451 209.108,109.733 216.042 C 130.370 224.321,139.646 236.702,136.220 251.391 C 131.691 270.807,87.973 274.195,57.426 257.497 C 46.207 251.364,45.497 252.320,45.681 273.315 C 45.815 288.681,45.830 288.763,48.988 291.535 C 51.679 293.898,60.212 296.965,67.000 298.009 C 68.760 298.280,72.810 299.016,76.000 299.644 C 91.429 302.684,113.810 302.497,129.205 299.199 C 154.695 293.738,168.782 284.594,177.977 267.539 C 182.321 259.482,182.923 256.013,182.724 240.200 L 182.573 228.200 181.302 224.524 C 176.367 210.247,166.180 198.099,152.123 189.728 C 147.355 186.889,130.326 178.684,125.600 176.948 C 93.865 165.295,81.603 146.827,95.639 131.822 C 102.576 124.406,107.688 122.996,127.600 123.008 C 145.609 123.018,150.599 123.847,161.781 128.689 C 175.000 134.413,175.759 133.592,175.507 113.844 C 175.282 96.123,174.704 95.316,160.000 92.175 C 156.370 91.400,152.140 90.481,150.600 90.134 C 147.420 89.417,111.273 88.981,106.400 89.601 M275.622 149.240 C 274.423 149.447,271.993 149.966,270.222 150.394 C 268.450 150.821,265.704 151.443,264.121 151.776 C 258.548 152.946,244.849 158.603,240.800 161.406 C 231.620 167.761,227.337 172.047,221.821 180.400 C 214.791 191.044,212.914 196.008,210.627 210.000 C 210.285 212.090,209.740 215.240,209.417 217.000 C 208.546 221.730,208.631 229.511,209.607 234.486 C 210.051 236.749,210.765 240.994,211.194 243.920 C 216.320 278.911,246.291 301.593,287.400 301.593 C 324.721 301.593,350.964 284.894,361.563 254.400 C 371.343 226.262,368.553 200.618,353.219 177.692 C 344.612 164.826,329.735 155.492,310.563 150.931 L 302.600 149.036 290.200 148.950 C 283.380 148.903,276.820 149.033,275.622 149.240 M296.361 180.666 C 309.911 183.482,317.854 191.466,321.913 206.349 L 323.400 211.800 323.393 225.200 L 323.386 238.600 321.876 243.400 C 317.367 257.730,311.074 264.917,299.824 268.582 C 286.161 273.033,271.521 269.403,261.800 259.152 C 257.869 255.008,256.406 251.986,253.952 242.939 L 251.908 235.400 251.708 227.047 C 251.386 213.634,254.307 202.868,260.996 192.806 C 267.307 183.313,283.066 177.904,296.361 180.666 " stroke="none" fill="#5c7cfc" fill-rule="evenodd"></path></g></svg>