<svg id="svg" version="1.1" xmlns="http://www.w3.org/2000/svg" xmlns:xlink="http://www.w3.org/1999/xlink" width="400" height="400" viewBox="0, 0, 400,400"><g id="svgg"><path id="path0" d="M123.036 90.447 C 117.428 91.763,117.000 93.078,117.000 109.000 C 117.000 129.870,114.350 128.122,146.400 128.396 L 170.200 128.600 172.106 129.538 C 173.477 130.214,174.318 130.999,175.106 132.338 L 176.200 134.200 176.400 214.200 C 176.621 302.692,176.395 295.779,179.142 298.089 C 181.276 299.885,183.308 300.051,201.673 299.920 L 218.623 299.800 220.575 298.795 C 221.943 298.091,222.777 297.313,223.363 296.195 L 224.200 294.600 224.400 214.589 L 224.600 134.578 225.616 132.605 C 226.404 131.073,227.073 130.404,228.604 129.616 L 230.577 128.600 254.788 128.400 C 287.031 128.134,284.563 129.830,284.321 108.108 C 284.153 93.084,283.642 91.562,278.392 90.436 C 275.820 89.884,125.389 89.895,123.036 90.447 " stroke="none" fill="#5c7cfc" fill-rule="evenodd"></path></g></svg>