<svg id="svg" version="1.1" xmlns="http://www.w3.org/2000/svg" xmlns:xlink="http://www.w3.org/1999/xlink" width="400" height="400" viewBox="0, 0, 400,400"><g id="svgg"><path id="path0" d="M117.197 92.931 C 111.827 94.727,111.868 96.049,117.854 114.137 C 127.397 142.972,144.371 192.750,146.109 197.000 C 147.099 199.420,154.613 221.380,162.808 245.800 C 179.968 296.941,179.226 295.084,183.400 297.337 C 185.561 298.503,223.617 298.917,227.405 297.816 C 231.807 296.536,232.269 295.621,239.941 273.000 C 242.328 265.960,244.966 258.580,245.803 256.600 C 247.201 253.293,254.148 232.996,268.435 190.471 C 271.489 181.381,275.153 171.031,276.576 167.471 C 280.939 156.558,299.600 100.454,299.600 98.249 C 299.600 92.809,298.970 92.627,279.663 92.482 C 256.406 92.309,257.383 91.731,252.069 108.800 C 250.733 113.090,249.187 118.412,248.632 120.626 C 248.077 122.841,246.557 127.971,245.253 132.026 C 241.928 142.365,240.600 146.789,239.437 151.400 C 238.882 153.600,237.612 157.920,236.616 161.000 C 235.620 164.080,234.247 168.850,233.564 171.600 C 232.882 174.350,230.712 181.640,228.743 187.800 C 226.773 193.960,224.617 201.160,223.952 203.800 C 223.286 206.440,221.304 213.100,219.547 218.600 C 217.790 224.100,215.718 231.030,214.942 234.000 C 208.913 257.090,206.956 257.889,201.226 239.604 C 200.096 236.000,198.725 231.240,198.179 229.026 C 197.633 226.812,195.579 219.960,193.615 213.800 C 191.651 207.640,189.576 200.710,189.004 198.400 C 188.433 196.090,186.278 188.890,184.216 182.400 C 182.155 175.910,179.925 168.440,179.261 165.800 C 178.598 163.160,176.523 156.230,174.650 150.400 C 172.777 144.570,170.701 137.640,170.037 135.000 C 169.372 132.360,168.011 127.619,167.012 124.465 C 166.013 121.311,164.737 116.901,164.175 114.665 C 160.268 99.118,157.848 94.439,152.954 92.966 C 150.480 92.222,119.409 92.191,117.197 92.931 " stroke="none" fill="#5c7cfc" fill-rule="evenodd"></path></g></svg>