<svg id="svg" version="1.1" xmlns="http://www.w3.org/2000/svg" xmlns:xlink="http://www.w3.org/1999/xlink" width="400" height="400" viewBox="0, 0, 400,400"><g id="svgg"><path id="path0" d="M53.534 90.367 C 50.486 90.983,48.404 93.349,48.402 96.200 C 48.401 98.488,50.383 106.283,62.797 152.800 C 64.528 159.290,66.600 167.210,67.399 170.400 C 68.199 173.590,70.176 181.150,71.792 187.200 C 73.409 193.250,76.558 205.130,78.791 213.600 C 81.024 222.070,84.475 235.120,86.460 242.600 C 88.446 250.080,91.392 261.240,93.008 267.400 C 101.047 298.042,100.707 297.142,105.005 299.081 C 106.944 299.955,147.186 300.411,150.976 299.601 C 157.071 298.300,156.465 299.806,166.998 259.800 C 168.620 253.640,172.041 240.680,174.600 231.000 C 177.158 221.320,180.690 207.910,182.447 201.200 C 192.900 161.296,193.690 159.001,196.530 160.295 C 198.580 161.229,199.448 163.846,205.589 187.600 C 207.608 195.410,210.854 207.920,212.802 215.400 C 214.751 222.880,217.518 233.590,218.951 239.200 C 221.448 248.973,228.381 275.774,231.388 287.274 C 234.848 300.511,233.168 299.800,261.000 299.800 C 285.412 299.800,284.348 299.933,287.157 296.525 C 288.903 294.407,288.719 295.031,297.652 261.000 C 298.750 256.820,301.158 247.730,303.005 240.800 C 304.851 233.870,307.978 222.080,309.952 214.600 C 311.927 207.120,315.098 195.150,316.999 188.000 C 318.900 180.850,321.872 169.600,323.603 163.000 C 325.334 156.400,327.380 148.660,328.149 145.800 C 328.918 142.940,330.200 138.170,330.998 135.200 C 331.796 132.230,333.326 126.470,334.399 122.400 C 335.471 118.330,337.350 111.220,338.573 106.600 C 342.971 89.987,343.279 90.250,319.261 90.080 C 293.884 89.900,294.968 89.279,291.612 105.909 C 290.736 110.249,289.108 118.120,287.993 123.400 C 286.041 132.650,284.633 139.497,275.448 184.400 C 265.119 234.899,264.857 235.866,261.889 234.513 C 259.656 233.496,258.164 228.216,246.258 179.200 C 238.251 146.236,232.783 123.765,229.551 110.540 C 224.196 88.630,226.216 89.999,199.245 90.002 C 180.639 90.005,177.934 90.208,175.558 91.781 C 172.371 93.889,173.054 91.725,158.005 147.400 C 156.519 152.900,153.197 165.140,150.623 174.600 C 148.049 184.060,144.419 197.470,142.556 204.400 C 135.074 232.228,134.024 235.045,131.252 234.721 C 128.544 234.406,128.049 232.500,117.796 183.000 C 116.383 176.180,114.132 165.470,112.794 159.200 C 111.455 152.930,109.373 142.940,108.168 137.000 C 106.963 131.060,105.443 123.770,104.790 120.800 C 104.138 117.830,102.789 111.530,101.792 106.800 C 98.056 89.060,99.997 90.224,74.000 90.135 C 63.550 90.100,54.340 90.204,53.534 90.367 " stroke="none" fill="#5d7cfc" fill-rule="evenodd"></path></g></svg>