<?xml version="1.0" standalone="no"?>
<!DOCTYPE svg PUBLIC "-//W3C//DTD SVG 20010904//EN"
 "http://www.w3.org/TR/2001/REC-SVG-20010904/DTD/svg10.dtd">
<svg version="1.0" xmlns="http://www.w3.org/2000/svg"
 width="347.000000pt" height="429.000000pt" viewBox="0 0 347.000000 429.000000"
 preserveAspectRatio="xMidYMid meet">
<metadata>
Created by potrace 1.15, written by Peter Selinger 2001-2017
</metadata>
<g transform="translate(0.000000,429.000000) scale(0.100000,-0.100000)"
fill="#000000" stroke="none">
<path d="M1532 4128 l-92 -79 45 -63 c25 -35 52 -81 61 -101 22 -52 35 -141
28 -187 l-7 -38 -56 0 c-37 0 -69 -7 -94 -20 -20 -11 -46 -20 -56 -20 -11 0
-23 -4 -26 -10 -3 -5 -13 -10 -22 -10 -14 0 -98 -39 -154 -72 -89 -52 -249
-237 -249 -287 0 -12 -4 -21 -10 -21 -5 0 -10 -6 -10 -14 0 -12 -14 -44 -51
-118 -5 -10 -9 -27 -9 -37 0 -11 -5 -23 -10 -26 -5 -3 -10 -17 -10 -30 0 -13
-5 -27 -10 -30 -5 -3 -10 -19 -10 -35 0 -16 -5 -32 -10 -35 -5 -3 -10 -21 -10
-40 0 -19 -5 -37 -10 -40 -5 -3 -10 -19 -10 -35 0 -16 -4 -32 -10 -35 -5 -3
-10 -24 -10 -45 0 -21 -4 -42 -10 -45 -6 -3 -10 -18 -10 -33 0 -55 -30 -113
-94 -186 -10 -11 -30 -37 -45 -56 -14 -19 -28 -37 -31 -40 -3 -3 -17 -21 -30
-40 -13 -19 -27 -37 -30 -40 -3 -3 -17 -21 -30 -40 -14 -19 -32 -44 -42 -54
-10 -11 -18 -26 -18 -33 0 -7 -4 -13 -8 -13 -5 0 -17 -17 -28 -37 -31 -57 -48
-87 -54 -93 -6 -6 -69 -136 -80 -165 -4 -11 -13 -33 -20 -50 -24 -56 -28 -70
-35 -100 -3 -16 -10 -50 -16 -75 -20 -91 -29 -266 -19 -361 15 -143 21 -183
31 -193 5 -6 9 -20 9 -32 0 -13 5 -26 10 -29 6 -3 10 -17 10 -31 0 -13 5 -24
10 -24 6 0 10 -6 10 -14 0 -17 42 -100 53 -104 4 -2 7 -10 7 -18 0 -8 5 -14
10 -14 6 0 10 -6 10 -13 0 -7 15 -29 33 -49 17 -19 44 -48 58 -64 44 -50 143
-134 156 -134 7 0 13 -4 13 -8 0 -5 12 -15 28 -23 15 -8 29 -16 32 -19 27 -27
281 -146 340 -159 80 -18 131 -31 166 -42 17 -5 45 -9 62 -9 18 0 32 -3 32 -6
0 -3 -14 -19 -31 -35 l-30 -28 95 -96 c59 -58 104 -95 116 -95 13 0 52 32 100
80 44 44 82 80 85 80 3 0 5 -36 5 -80 l0 -80 150 0 150 0 0 105 c0 58 3 105 8
105 4 0 33 -28 64 -62 121 -134 136 -148 156 -148 13 0 54 32 102 77 82 79 95
106 71 151 -18 34 39 72 108 72 21 0 64 13 97 29 32 15 93 45 134 65 73 35
130 66 140 76 3 3 17 11 33 19 15 8 27 18 27 23 0 4 6 8 13 8 13 0 112 84 156
134 14 16 41 45 59 64 17 20 32 42 32 49 0 7 5 13 10 13 6 0 10 6 10 14 0 8 3
16 8 18 10 4 52 87 52 104 0 8 5 14 10 14 6 0 10 11 10 24 0 14 5 28 10 31 6
3 10 16 10 29 0 12 4 26 9 32 10 10 16 50 31 193 10 95 1 270 -19 361 -6 25
-13 59 -16 75 -4 17 -11 40 -16 53 -11 28 -26 65 -38 95 -13 33 -75 161 -81
167 -6 6 -23 36 -54 93 -11 20 -23 37 -28 37 -4 0 -8 6 -8 13 0 7 -8 22 -18
33 -10 10 -28 35 -42 54 -13 19 -27 37 -30 40 -3 3 -17 21 -30 40 -13 19 -27
37 -30 40 -3 3 -17 21 -31 40 -15 19 -35 45 -45 56 -64 73 -94 131 -94 186 0
15 -4 30 -10 33 -5 3 -10 24 -10 45 0 21 -4 42 -10 45 -5 3 -10 19 -10 35 0
16 -4 32 -10 35 -5 3 -10 21 -10 40 0 19 -4 37 -10 40 -5 3 -10 19 -10 35 0
16 -4 32 -10 35 -5 3 -10 17 -10 30 0 13 -4 27 -10 30 -5 3 -10 15 -10 26 0
10 -4 27 -9 37 -37 74 -51 106 -51 118 0 8 -4 14 -10 14 -5 0 -10 9 -10 21 0
35 -98 165 -166 219 -42 34 -113 80 -123 80 -6 0 -11 4 -11 9 0 5 -15 11 -32
15 -18 4 -51 15 -73 24 -54 25 -101 42 -154 57 l-44 12 -2 82 -2 82 26 -5 c14
-3 46 -8 71 -11 79 -11 189 -44 253 -76 34 -17 135 -78 225 -136 271 -174 373
-210 581 -201 112 5 119 7 186 44 76 42 125 90 168 166 l27 47 -22 14 c-13 8
-88 51 -168 97 -179 102 -292 175 -381 246 -97 77 -184 129 -259 154 -57 20
-79 22 -180 17 -82 -5 -137 -13 -190 -30 -94 -31 -218 -81 -292 -118 -73 -37
-93 -37 -106 -1 -5 16 -16 35 -23 43 -8 8 -34 40 -58 72 -24 32 -47 59 -50 61
-3 2 -48 -32 -99 -76z m138 -749 c0 -8 5 -8 15 1 27 22 203 -14 295 -60 187
-95 276 -274 380 -764 30 -136 44 -184 62 -205 12 -14 64 -69 114 -121 216
-226 328 -408 385 -628 29 -112 37 -324 15 -420 -22 -97 -41 -145 -91 -222
-67 -105 -209 -216 -371 -290 -211 -96 -378 -151 -539 -175 -241 -36 -609 -3
-882 80 -103 32 -212 76 -238 97 -11 9 -51 40 -90 69 -214 159 -316 322 -345
551 -35 281 96 548 497 1016 l79 93 53 232 c68 297 93 385 136 474 75 153 172
211 460 276 38 9 65 7 65 -4z"/>
</g>
</svg>
